<svg xmlns="http://www.w3.org/2000/svg" version="1.1" xmlns:xlink="http://www.w3.org/1999/xlink" width="24" height="24"><svg xmlns="http://www.w3.org/2000/svg" viewBox="0 0 24 24" x="0px" y="0px"><path d="M20,9a1,1,0,0,0,1-1V4a1,1,0,0,0-1-1H16a1,1,0,0,0-1,1V5H9V4A1,1,0,0,0,8,3H4A1,1,0,0,0,3,4V8A1,1,0,0,0,4,9H5v6H4a1,1,0,0,0-1,1v4a1,1,0,0,0,1,1H8a1,1,0,0,0,1-1V19h6v1a1,1,0,0,0,1,1h4a1,1,0,0,0,1-1V16a1,1,0,0,0-1-1H19V9Zm-3,6H16a1,1,0,0,0-1,1v1H9V16a1,1,0,0,0-1-1H7V9H8A1,1,0,0,0,9,8V7h6V8a1,1,0,0,0,1,1h1Z"></path></svg><style>@media (prefers-color-scheme: light) { :root { filter: none; } }
@media (prefers-color-scheme: dark) { :root { filter: invert(100%); } }
</style></svg>